<svg width="145" height="35" viewBox="0 0 145 35" fill="none" xmlns="http://www.w3.org/2000/svg">
<path d="M52.1186 11.8182V22H53.5803V14.6271H53.6747L56.6776 21.9851H57.8906L60.8935 14.6321H60.9879V22H62.4496V11.8182H60.5852L57.3438 19.733H57.2244L53.983 11.8182H52.1186ZM67.8549 22.1541C69.5204 22.1541 70.6987 21.3338 71.0368 20.0909L69.6298 19.8374C69.3613 20.5582 68.715 20.9261 67.8699 20.9261C66.5971 20.9261 65.742 20.1009 65.7022 18.6293H71.1312V18.1023C71.1312 15.343 69.4806 14.2642 67.7505 14.2642C65.6227 14.2642 64.2207 15.8849 64.2207 18.2315C64.2207 20.603 65.6028 22.1541 67.8549 22.1541ZM65.7072 17.5156C65.7669 16.4318 66.5524 15.4922 67.7605 15.4922C68.9139 15.4922 69.6696 16.3473 69.6745 17.5156H65.7072ZM75.6392 22.1491C77.0312 22.1491 77.5781 21.299 77.8466 20.8118H77.9709V22H79.4226V11.8182H77.9361V15.6016H77.8466C77.5781 15.1293 77.071 14.2642 75.6491 14.2642C73.8047 14.2642 72.4474 15.7209 72.4474 18.1967C72.4474 20.6676 73.7848 22.1491 75.6392 22.1491ZM75.9673 20.8814C74.6399 20.8814 73.9489 19.7131 73.9489 18.1818C73.9489 16.6655 74.625 15.527 75.9673 15.527C77.2649 15.527 77.9609 16.5859 77.9609 18.1818C77.9609 19.7876 77.25 20.8814 75.9673 20.8814ZM81.5442 22H83.0307V14.3636H81.5442V22ZM82.2949 13.1854C82.807 13.1854 83.2346 12.7876 83.2346 12.3004C83.2346 11.8132 82.807 11.4105 82.2949 11.4105C81.7779 11.4105 81.3553 11.8132 81.3553 12.3004C81.3553 12.7876 81.7779 13.1854 82.2949 13.1854ZM88.2472 22.1541C90.0518 22.1541 91.2202 21.0703 91.3842 19.5838H89.9375C89.7486 20.4091 89.1072 20.8963 88.2571 20.8963C86.9993 20.8963 86.1889 19.8473 86.1889 18.1818C86.1889 16.5462 87.0142 15.517 88.2571 15.517C89.2017 15.517 89.7784 16.1136 89.9375 16.8295H91.3842C91.2251 15.2884 89.9673 14.2642 88.2322 14.2642C86.0795 14.2642 84.6875 15.8849 84.6875 18.2166C84.6875 20.5185 86.0298 22.1541 88.2472 22.1541ZM95.8326 22.1491C97.2246 22.1491 97.7715 21.299 98.04 20.8118H98.1642V22H99.6159V14.3636H98.1294V15.6016H98.04C97.7715 15.1293 97.2644 14.2642 95.8425 14.2642C93.998 14.2642 92.6408 15.7209 92.6408 18.1967C92.6408 20.6676 93.9782 22.1491 95.8326 22.1491ZM96.1607 20.8814C94.8333 20.8814 94.1422 19.7131 94.1422 18.1818C94.1422 16.6655 94.8184 15.527 96.1607 15.527C97.4583 15.527 98.1543 16.5859 98.1543 18.1818C98.1543 19.7876 97.4434 20.8814 96.1607 20.8814ZM101.738 11.8182V20.2202C101.738 21.4283 102.359 22.0746 103.647 22.0547C104.044 22.0497 104.363 21.9851 104.571 21.9205L104.303 20.7322C104.199 20.7621 104.094 20.7969 103.836 20.8018C103.358 20.8168 103.224 20.5682 103.224 19.9119V11.8182H101.738ZM114.93 14.4929H116.411C116.366 12.8622 114.925 11.679 112.857 11.679C110.813 11.679 109.247 12.8473 109.247 14.6023C109.247 16.0192 110.261 16.8494 111.897 17.2919L113.1 17.62C114.189 17.9084 115.029 18.2663 115.029 19.1712C115.029 20.1655 114.08 20.8217 112.772 20.8217C111.589 20.8217 110.604 20.2947 110.515 19.1861H108.974C109.073 21.0305 110.5 22.169 112.782 22.169C115.173 22.169 116.55 20.9112 116.55 19.1861C116.55 17.3516 114.915 16.6406 113.622 16.3224L112.628 16.0639C111.832 15.8601 110.773 15.4872 110.778 14.5128C110.778 13.6477 111.569 13.0064 112.822 13.0064C113.99 13.0064 114.82 13.5533 114.93 14.4929ZM121.831 14.3636H120.265V12.5341H118.779V14.3636H117.66V15.5568H118.779V20.0661C118.774 21.4531 119.833 22.1243 121.006 22.0994C121.479 22.0945 121.797 22.005 121.971 21.9403L121.702 20.7124C121.603 20.7322 121.419 20.777 121.18 20.777C120.698 20.777 120.265 20.6179 120.265 19.7578V15.5568H121.831V14.3636ZM126.61 22.1541C128.763 22.1541 130.17 20.5781 130.17 18.2166C130.17 15.8402 128.763 14.2642 126.61 14.2642C124.458 14.2642 123.051 15.8402 123.051 18.2166C123.051 20.5781 124.458 22.1541 126.61 22.1541ZM126.615 20.9062C125.208 20.9062 124.552 19.6783 124.552 18.2116C124.552 16.75 125.208 15.5071 126.615 15.5071C128.012 15.5071 128.669 16.75 128.669 18.2116C128.669 19.6783 128.012 20.9062 126.615 20.9062ZM131.829 22H133.316V17.3366C133.316 16.3423 134.086 15.6214 135.116 15.6214C135.404 15.6214 135.628 15.6811 135.807 15.7706L136.284 14.5277C136.03 14.3587 135.702 14.2493 135.285 14.2493C134.38 14.2493 133.624 14.7564 133.346 15.5767H133.266V14.3636H131.829V22ZM140.398 22.1541C142.063 22.1541 143.242 21.3338 143.58 20.0909L142.173 19.8374C141.904 20.5582 141.258 20.9261 140.413 20.9261C139.14 20.9261 138.285 20.1009 138.245 18.6293H143.674V18.1023C143.674 15.343 142.024 14.2642 140.294 14.2642C138.166 14.2642 136.764 15.8849 136.764 18.2315C136.764 20.603 138.146 22.1541 140.398 22.1541ZM138.25 17.5156C138.31 16.4318 139.095 15.4922 140.303 15.4922C141.457 15.4922 142.213 16.3473 142.218 17.5156H138.25Z" fill="white"/>
<mask id="path-2-inside-1" fill="white">
<path fill-rule="evenodd" clip-rule="evenodd" d="M5.81841 0H12.3529V12.3529L0 12.3529V5.81841C0 2.60499 2.60499 0 5.81841 0ZM0 22.5575V29.1816C0 32.395 2.60499 35 5.81841 35H12.3529V22.5575H0ZM22.5575 22.5575V35H29.1816C32.395 35 35 32.395 35 29.1816V22.5575H22.5575ZM35 12.3529V5.81841C35 2.60499 32.395 0 29.1816 0H22.5575V12.3529L35 12.3529Z"/>
</mask>
<path fill-rule="evenodd" clip-rule="evenodd" d="M5.81841 0H12.3529V12.3529L0 12.3529V5.81841C0 2.60499 2.60499 0 5.81841 0ZM0 22.5575V29.1816C0 32.395 2.60499 35 5.81841 35H12.3529V22.5575H0ZM22.5575 22.5575V35H29.1816C32.395 35 35 32.395 35 29.1816V22.5575H22.5575ZM35 12.3529V5.81841C35 2.60499 32.395 0 29.1816 0H22.5575V12.3529L35 12.3529Z" fill="#F1E4FF"/>
<path d="M12.3529 0H13.1307V-0.777778H12.3529V0ZM12.3529 12.3529V13.1307H13.1307V12.3529H12.3529ZM0 12.3529H-0.777778V13.1307H-6.00463e-08L0 12.3529ZM0 22.5575V21.7798H-0.777778V22.5575H0ZM12.3529 35V35.7778H13.1307V35H12.3529ZM12.3529 22.5575H13.1307V21.7798H12.3529V22.5575ZM22.5575 22.5575V21.7798H21.7797V22.5575H22.5575ZM22.5575 35H21.7797V35.7778H22.5575V35ZM35 22.5575H35.7778V21.7798H35V22.5575ZM35 12.3529V13.1307H35.7778V12.3529H35ZM22.5575 0V-0.777778H21.7797V0H22.5575ZM22.5575 12.3529H21.7797V13.1307H22.5575V12.3529ZM12.3529 -0.777778H5.81841V0.777778H12.3529V-0.777778ZM13.1307 12.3529V0H11.5751V12.3529H13.1307ZM-6.00463e-08 13.1307L12.3529 13.1307V11.5752L6.00463e-08 11.5752L-6.00463e-08 13.1307ZM-0.777778 5.81841V12.3529H0.777778V5.81841H-0.777778ZM5.81841 -0.777778C2.17544 -0.777778 -0.777778 2.17544 -0.777778 5.81841H0.777778C0.777778 3.03455 3.03455 0.777778 5.81841 0.777778V-0.777778ZM-0.777778 22.5575V29.1816H0.777778V22.5575H-0.777778ZM-0.777778 29.1816C-0.777778 32.8246 2.17544 35.7778 5.81841 35.7778V34.2222C3.03455 34.2222 0.777778 31.9655 0.777778 29.1816H-0.777778ZM5.81841 35.7778H12.3529V34.2222H5.81841V35.7778ZM13.1307 35V22.5575H11.5751V35H13.1307ZM12.3529 21.7798H0V23.3353H12.3529V21.7798ZM21.7797 22.5575V35H23.3353V22.5575H21.7797ZM22.5575 35.7778H29.1816V34.2222H22.5575V35.7778ZM29.1816 35.7778C32.8246 35.7778 35.7778 32.8246 35.7778 29.1816H34.2222C34.2222 31.9655 31.9655 34.2222 29.1816 34.2222V35.7778ZM35.7778 29.1816V22.5575H34.2222V29.1816H35.7778ZM35 21.7798H22.5575V23.3353H35V21.7798ZM35.7778 12.3529V5.81841H34.2222V12.3529H35.7778ZM35.7778 5.81841C35.7778 2.17544 32.8246 -0.777778 29.1816 -0.777778V0.777778C31.9655 0.777778 34.2222 3.03455 34.2222 5.81841H35.7778ZM29.1816 -0.777778H22.5575V0.777778H29.1816V-0.777778ZM21.7797 0V12.3529H23.3353V0H21.7797ZM22.5575 13.1307L35 13.1307V11.5752L22.5575 11.5752V13.1307Z" fill="#EBD9FF" mask="url(#path-2-inside-1)"/>
</svg>
